<svg width="102" height="70" viewBox="0 0 102 70" fill="none" xmlns="http://www.w3.org/2000/svg">
<path d="M9 42.8572L1 34.8572L9 26.8572" stroke="#6366F1" stroke-width="2" stroke-linecap="round" stroke-linejoin="round"/>
<path d="M93 42.8572L101 34.8572L93 26.8572" stroke="#6366F1" stroke-width="2" stroke-linecap="round" stroke-linejoin="round"/>
<path d="M48.0926 0.166585C47.6689 0.255803 46.8324 0.568067 46.2525 0.846874C44.2563 1.80597 42.6726 3.79107 42.1708 5.95462C41.2786 9.85791 43.4756 13.7835 47.312 15.1106C48.115 15.4006 48.3491 15.4229 49.7097 15.4229C51.0703 15.4229 51.3045 15.4006 52.1075 15.1106C54.6725 14.2296 56.6464 12.0661 57.2375 9.52334C57.3379 9.08841 57.4271 8.28544 57.4271 7.73898C57.4271 5.58659 56.7022 3.85799 55.1743 2.31897C54.3714 1.50486 54.048 1.27066 53.1669 0.846874C51.4606 0.0216057 49.8212 -0.190288 48.0926 0.166585Z" fill="#6366F1"/>
<path d="M70.899 14.4192C70.6202 14.4973 69.3154 14.8988 67.9994 15.3002C57.204 18.6013 51.0814 19.8281 47.6019 19.4043C44.0443 18.9582 37.9887 17.4972 30.7397 15.3114C29.1895 14.843 27.6617 14.4415 27.3494 14.4081C25.71 14.2408 23.9145 15.2333 23.2454 16.6943C23.0446 17.1181 23 17.4303 23 18.2779C23 19.1924 23.0446 19.4266 23.29 19.9619C23.6803 20.7872 24.2602 21.4228 24.9851 21.7797C25.2974 21.947 29.5018 23.263 34.3196 24.7016C39.1373 26.1514 43.2302 27.4339 43.4198 27.5566C43.6094 27.6904 43.8882 27.9692 44.0332 28.1811C44.3455 28.6384 44.3455 29.0175 44.0778 33.3335C43.8548 36.8799 43.6206 38.9431 43.286 40.4709C42.5276 43.8389 39.182 52.8053 35.3679 61.6603L34.0408 64.7271V65.8424C34.0408 66.8349 34.0742 67.0245 34.353 67.5933C34.7545 68.4185 35.4794 69.1434 36.3047 69.5449C36.8623 69.8237 37.063 69.8572 37.9998 69.8572C38.9254 69.8572 39.1373 69.8237 39.6727 69.5561C40.0072 69.3888 40.4756 69.0654 40.6987 68.8312C41.1336 68.3851 41.1782 68.2959 46.5871 57.2886C48.2599 53.876 49.6651 51.099 49.6985 51.1214C49.7432 51.1437 51.5275 54.9577 53.6688 59.6082C58.007 68.9873 57.9066 68.82 59.2784 69.4892C59.9475 69.8237 60.1148 69.8572 61.0293 69.8572C61.9437 69.8572 62.111 69.8237 62.7802 69.4892C64.2188 68.7866 65.0218 67.504 65.0329 65.8981C65.0329 65.1844 64.9772 64.9167 64.6426 64.1138C64.4195 63.5896 63.4158 61.1807 62.401 58.7607C58.8434 50.2626 56.468 43.7943 55.7319 40.6159C55.3081 38.8315 54.9401 34.9506 54.7728 30.7573C54.7059 29.0287 54.7171 28.7722 54.8955 28.4265C55.1074 27.9915 55.4754 27.5677 55.7431 27.4228C55.8434 27.367 59.8583 26.1403 64.6649 24.6905C69.4715 23.2407 73.6202 21.9582 73.8767 21.8355C74.5347 21.5121 75.4045 20.5307 75.6945 19.7723C76.0625 18.7686 76.096 17.9879 75.806 17.04C75.5941 16.3374 75.4715 16.1367 74.8804 15.5456C74.3674 15.0437 74.0105 14.7872 73.5198 14.5977C72.7057 14.2965 71.5793 14.2073 70.899 14.4192Z" fill="#6366F1"/>
</svg>
