<svg width="41" height="41" viewBox="0 0 41 41" fill="none" xmlns="http://www.w3.org/2000/svg">
<path d="M38.5 20.5C38.5 30.4411 30.4411 38.5 20.5 38.5C10.5589 38.5 2.5 30.4411 2.5 20.5C2.5 10.5589 10.5589 2.5 20.5 2.5C30.4411 2.5 38.5 10.5589 38.5 20.5Z" stroke="#F2F2F2" stroke-opacity="0.49" stroke-width="5"/>
<path fill-rule="evenodd" clip-rule="evenodd" d="M21.1584 5.01373C20.9401 5.00461 20.7206 5 20.5 5C11.9396 5 5 11.9396 5 20.5C5 23.408 5.8008 26.1289 7.1939 28.4543L2.87174 30.9702C1.04768 27.9057 0 24.3252 0 20.5C0 9.17816 9.17816 0 20.5 0C20.842 0 21.182 0.00837471 21.5199 0.0249302L21.1584 5.01373Z" fill="#F2F2F2"/>
</svg>
