<svg width="300" height="300" viewBox="0 0 300 300" fill="none" xmlns="http://www.w3.org/2000/svg">
<path d="M290 150C290 227.32 227.32 290 150 290C72.6801 290 10 227.32 10 150C10 72.6801 72.6801 10 150 10C227.32 10 290 72.6801 290 150Z" stroke="#9FA1FF" stroke-width="20"/>
<path fill-rule="evenodd" clip-rule="evenodd" d="M156.017 20.1368C154.023 20.0459 152.017 20 150 20C78.203 20 20 78.203 20 150C20 174.32 26.6784 197.081 38.3013 216.548L21.0127 226.611C7.66594 204.188 0 177.989 0 150C0 67.1573 67.1573 0 150 0C152.502 0 154.991 0.0612781 157.463 0.182416L156.017 20.1368Z" fill="#6366F1"/>
</svg>
